<?xml version="1.0" encoding="UTF-8"?>
<!-- Generated by tools/make-icons.py from web/images/banana.svg.  Rendered to
     every iconset size by tools/make-app.sh; do not edit by hand. -->
<svg xmlns="http://www.w3.org/2000/svg" viewBox="0 0 1024 1024" width="1024" height="1024">
  <defs>
    <style>
      .cls-1 {
          stroke: #04070b;
          stroke-width: 1.4;
          stroke-linejoin: round;
        fill: #FFDA6C;
      }

      .cls-2 {
          stroke: #04070b;
          stroke-width: 1.4;
          stroke-linejoin: round;
        fill: #fff;
      }

      .cls-3 {
        fill: #04070b;
      }
    </style>
  </defs>
  <rect x="32" y="32" width="960" height="960" rx="160" fill="#171716"/>
  <svg x="212.00" y="212.00" width="600.00" height="600.00" viewBox="-1.0 -1.0 58.69300079345703 58.40700149536133">
<path class="cls-1" d="M55.146598815917969,28.117801666259766l-12.798999786376953,4.581001281738281-5.61199951171875-9.706001281738281c-4.093997955322266,0-8.332000732421875.887001037597656-11.195003509521484,3.750999450683594-2.719997406005859,2.720001220703125-3.836997985839844,6.929000854492188-4.037998199462891,11.081001281738281-.972999572753906.19999885559082-2.003997802734375.285999298095703-3.034999847412109.285999298095703-4.694999694824219,0-9.591999053955078-1.001998901367188-12.483997344970703-1.001998901367188C2.4906005859375,37.108802795410156-.000400543212891,38.597801208496094-.000400543212891,42.347801208496094-.000400543212891,52.59880256652832,12.225597381591797,56.406801223754883,23.535598754882812,56.406801223754883c6.443000793457031,0,13.142997741699219-1.316999435424805,19.069999694824219-6.0989990234375-.114997863769531.687999725341797-.114997863769531,1.288999557495117-.114997863769531,1.57499885559082,0,2.606000900268555,1.574996948242188,3.980001449584961,4.037998199462891,3.980001449584961,5.783000946044922,0,10.163997650146484-9.620000839233398,10.163997650146484-18.353000640869141,0-3.723001480102539-.629997253417969-6.987001419067383-1.545997619628906-9.392000198364258"/>
  <path class="cls-2" d="M52.512702941894531,28.175304412841797l1.316993713378906-.831001281738281c-.371994018554688,0-.772994995117188.028999328613281-1.14599609375.057998657226562l-.170997619628906.773002624511719ZM37.308700561523438,22.992301940917969l.687000274658203,1.317001342773438c.113998413085938-.285999298095703.199996948242188-.571998596191406.285999298095703-.859001159667969-.31500244140625-.170997619628906-.630001068115234-.314998626708984-.972999572753906-.458000183105469M43.206699371337891,31.038303375244141l.916000366210938.285999298095703c-.056999206542969-.256999969482422-.08599853515625-.543998718261719-.172000885009766-.800998687744141-.772998809814453-2.978000640869141-3.034999847412109-5.641002655029297-5.668998718261719-7.073001861572266,1.746997833251953-5.125,2.376998901367188-9.591999053955078,3.349998474121094-13.141998291015625,1.518001556396484-5.5260009765625,3.063999176025391-7.701995849609375,6.613998413085938-7.701995849609375,4.695999145507812,0,5.640998840332031,7.415992736816406,5.640998840332031,13.227996826171875,0,4.036998748779297-.428993225097656,7.930999755859375-1.202995300292969,11.567996978759766-3.121002197265625.229000091552734-5.984001159667969,1.345001220703125-8.733001708984375,3.121002197265625l-.743999481201172.514999389648438Z"/>
  <path class="cls-3" d="M49.390998840332031,11.282001495361328c0,.772998809814453.572998046875,1.374000549316406,1.375,1.374000549316406.773002624511719,0,1.374000549316406-.601001739501953,1.374000549316406-1.374000549316406,0-.744998931884766-.600997924804688-1.317001342773438-1.374000549316406-1.317001342773438-.802001953125,0-1.375.572002410888672-1.375,1.317001342773438M44.007999420166016,33.730003356933594c2.576999664306641-2.262001037597656,5.698001861572266-3.551002502441406,9.133998870849609-3.808002471923828.659004211425781,1.688999176025391,1.030998229980469,4.007999420166016,1.030998229980469,7.788000106811523,0,7.759000778198242-4.008995056152344,15.576000213623047-7.644996643066406,15.576000213623047-1.030998229980469,0-1.459999084472656-.629999160766602-1.459999084472656-1.861000061035156,0-1.57499885559082.257999420166016-3.521999359130859.257999420166016-5.554998397827148,0-3.608001708984375-.373001098632812-9.477001190185547-1.318000793457031-12.139999389648438M43.693000793457031,15.663002014160156c0,2.031997680664062,1.918998718261719,3.520999908447266,4.065994262695312,3.520999908447266,2.176002502441406,0,4.095001220703125-1.459999084472656,4.095001220703125-3.520999908447266,0-.630001068115234-.457992553710938-1.145999908447266-1.144996643066406-1.145999908447266-.601997375488281,0-1.116996765136719.515998840332031-1.116996765136719,1.145999908447266,0,.743999481201172-.88800048828125,1.230998992919922-1.8330078125,1.230998992919922-.972995758056641,0-1.803993225097656-.572998046875-1.803993225097656-1.230998992919922,0-.630001068115234-.515003204345703-1.145999908447266-1.145004272460938-1.145999908447266-.600997924804688,0-1.116996765136719.515998840332031-1.116996765136719,1.145999908447266M43.463996887207031,11.282001495361328c0,.772998809814453.573001861572266,1.374000549316406,1.346000671386719,1.374000549316406.745002746582031,0,1.375-.601001739501953,1.375-1.374000549316406,0-.744998931884766-.629997253417969-1.317001342773438-1.375-1.317001342773438-.772998809814453,0-1.346000671386719.572002410888672-1.346000671386719,1.317001342773438M38.281997680664062,23.451000213623047c1.746002197265625-5.125999450683594,2.375999450683594-9.591999053955078,3.350002288818359-13.142997741699219,1.517002105712891-5.526004791259766,3.063999176025391-7.701999664306641,6.613994598388672-7.701999664306641,4.696006774902344,0,5.641006469726562,7.416000366210938,5.641006469726562,13.227996826171875,0,4.038002014160156-.430000305175781,7.932003021240234-1.2030029296875,11.568000793457031-3.121002197265625.22900390625-5.984001159667969,1.346000671386719-8.732997894287109,3.121002197265625-.772998809814453-2.978000640869141-3.034999847412109-5.640998840332031-5.669002532958984-7.072002410888672M24.137001037597656,36.994003295898438c.257999420166016-3.436004638671875.916999816894531-6.299003601074219,3.034999847412109-8.388999938964844,1.889999389648438-1.889999389648438,4.151996612548828-2.635002136230469,6.843997955322266-2.805999755859375-2.662998199462891,5.782997131347656-5.61199951171875,9.333999633789062-9.878997802734375,11.194999694824219M6.413999557495117,40.544002532958984c2.863000869750977.08599853515625,7.301000595092773.9739990234375,12.053998947143555.9739990234375,9.333999633789062,0,14.517002105712891-5.698001861572266,18.812000274658203-14.688999176025391,1.917999267578125,1.402999877929688,3.178001403808594,3.464996337890625,3.178001403808594,5.555000305175781,0,.629997253417969-.056999206542969,1.230998992919922-.630001068115234,2.291000366210938-2.920001983642578,5.239997863769531-8.046001434326172,11.194999694824219-17.007999420166016,11.194999694824219-5.268001556396484,0-10.965999603271484-.773002624511719-16.034000396728516-2.949001312255859v-.257999420166016c0-.743999481201172-.114999771118164-1.460000991821289-.371999740600586-2.118999481201172M4.952999114990234,46.758001327514648c.516000747680664-.28700065612793.916999816894531-.773000717163086,1.203001022338867-1.345998764038086,5.325998306274414,2.175998687744141,11.538999557495117,3.034999847412109,16.663999557495117,3.034999847412109,9.076999664306641,0,14.803001403808594-5.068000793457031,19.126998901367188-12.598003387451172.572998046875,2.491003036499023.830001831054688,7.015003204345703.830001831054688,9.821002960205078l-.944999694824219.886999130249023c-4.46600341796875,4.209001541137695-10.851001739501953,6.471000671386719-18.296001434326172,6.471000671386719-6.785999298095703,0-15.519001007080078-1.545999526977539-18.583000183105469-6.270000457763672M2.833999633789062,42.663002014160156c0-.773000717163086.37299919128418-2.118999481201172.830999374389648-2.118999481201172.572000503540039,0,.887001037597656,1.402999877929688.887001037597656,2.118999481201172,0,.858999252319336-.343000411987305,2.175998687744141-.887001037597656,2.175998687744141-.515998840332031,0-.830999374389648-1.459999084472656-.830999374389648-2.175998687744141M23.535999298095703,56.407001495361328c6.442001342773438,0,13.142002105712891-1.317000389099121,19.069000244140625-6.0989990234375-.114002227783203.68699836730957-.114002227783203,1.288999557495117-.114002227783203,1.57499885559082,0,2.605999946594238,1.575004577636719,3.980000495910645,4.037002563476562,3.980000495910645,5.78399658203125,0,10.165000915527344-9.621001243591309,10.165000915527344-18.354001045227051,0-3.72199821472168-.6300048828125-6.985998153686523-1.546005249023438-9.390996932983398.830001831054688-3.866001129150391,1.259002685546875-7.989002227783203,1.259002685546875-12.284004211425781,0-8.102996826171875-2.031997680664062-15.833999633789062-8.016998291015625-15.833999633789062-5.354000091552734,0-7.301002502441406,3.580001831054688-9.191001892089844,9.592002868652344-.887001037597656,2.920997619628906-1.431999206542969,7.702999114990234-3.463996887207031,13.428997039794922-3.780002593994141.115001678466797-7.559001922607422,1.088001251220703-10.194000244140625,3.722003936767578-2.720001220703125,2.720996856689453-3.837001800537109,6.930000305175781-4.037002563476562,11.080997467041016-.972999572753906.201000213623047-2.003997802734375.28700065612793-3.034999847412109.28700065612793-4.695999145507812,0-9.591999053955078-1.00200080871582-12.483999252319336-1.00200080871582-3.493000030517578,0-5.983999252319336,1.488000869750977-5.983999252319336,5.23900032043457,0,10.250999450683594,12.225997924804688,14.059000015258789,23.535999298095703,14.059000015258789"/>
  </svg>
</svg>
